<?xml version="1.0" encoding="utf-8"?>
<!-- Svg Vector Icons : http://www.onlinewebfonts.com/icon -->
<!DOCTYPE svg PUBLIC "-//W3C//DTD SVG 1.1//EN" "http://www.w3.org/Graphics/SVG/1.1/DTD/svg11.dtd">
<svg version="1.1" xmlns="http://www.w3.org/2000/svg" xmlns:xlink="http://www.w3.org/1999/xlink" x="0px" y="0px" viewBox="0 0 1000 1000" enable-background="new 0 0 1000 1000" xml:space="preserve">
<metadata> Svg Vector Icons : http://www.onlinewebfonts.com/icon </metadata>
<g><g transform="translate(0.000000,511.000000) scale(0.100000,-0.100000)"><path d="M3591.5,4995.3c-222.9-45-617.7-282.3-1043.2-627.9c-276.1-225-924.5-873.4-1149.5-1149.5c-362-445.9-587-824.3-630-1065.7c-14.3-77.7-18.4-1075.9-14.3-2986.3c4.1-2697.9,8.2-2879.9,43-2994.5c106.4-353.8,374.3-675,687.3-824.3c306.8-145.2,135-137,2873.8-137c2337.9,0,2483.1,2,2607.9,36.8c439.8,124.8,816.1,499.1,928.6,924.5c18.4,67.5,38.8,245.4,47,394.8l12.3,270h-327.3h-329.3l-8.2-259.8c-6.1-225-14.3-274.1-55.2-353.9c-63.4-124.8-175.9-237.2-298.6-302.7l-102.3-55.2l-2462.7-6.1l-2462.7-4.1l-114.5,51.1c-141.1,65.5-253.6,171.8-325.2,306.8l-55.2,102.3L1407-809.6l-4.1,2877.9l597.3,10.2c666.8,10.2,732.3,20.5,987.9,153.4c194.3,100.2,445.9,351.8,546.1,546.1c133,255.7,143.2,321.1,153.4,987.9l10.2,597.3l1568.8-4.1l1566.8-6.1l102.3-55.2c135-71.6,241.4-184.1,304.8-323.2l53.2-112.5v-1712v-1714h327.3h329.3l-8.2,1744.7c-6.1,1937,2,1812.2-149.3,2121.1c-100.2,202.5-345.7,450-550.2,556.4c-296.6,153.4-204.6,147.3-1973.8,151.4C4389.2,5011.7,3642.6,5005.5,3591.5,4995.3z"/><path d="M3204.9,76.1c-143.2-38.8-227-90-327.3-204.5c-153.4-175.9-155.5-184.1-155.5-1235.4c0-1090.2-2.1-1073.8,192.3-1270.2c210.7-208.6-65.4-192.3,3070.1-192.3c3135.6,0,2859.5-16.4,3070.1,192.3c194.3,196.4,192.3,180,192.3,1270.2S9249-290,9054.7-93.7C8844.1,117,9128.4,98.6,6025.5,102.7C3699.9,106.8,3299,102.7,3204.9,76.1z M4726.7-603c57.3-26.6,128.9-71.6,159.5-102.3c71.6-67.5,147.3-208.6,122.7-229.1c-18.4-14.3-214.8-61.4-263.9-61.4c-16.4,0-28.6,12.3-28.6,26.6c0,47-110.4,133-204.5,157.5c-180,47-433.6-16.4-472.5-120.7c-47-120.7,36.8-182,333.4-247.5c558.4-122.7,726.1-251.6,707.7-544.1c-12.3-180-83.8-280.2-270-376.3c-141.1-71.6-143.2-71.6-409.1-71.6c-251.6,0-276.1,4.1-390.7,57.3c-143.2,67.5-222.9,137-278.2,243.4c-59.3,116.6-53.2,126.8,100.2,165.7c124.8,30.7,139.1,30.7,157.5,0c104.3-163.6,200.4-214.8,421.4-214.8c370.2-2,525.7,227,249.5,370.2c-24.5,12.3-161.6,49.1-302.7,83.9c-141.1,34.8-302.7,81.8-360,104.3c-390.7,167.7-337.5,648.4,88,787.5C4227.6-529.3,4597.8-545.7,4726.7-603z M6540.9-623.4c360-175.9,521.6-597.3,390.7-1016.6c-34.8-104.3-110.4-241.4-149.3-265.9c-36.8-22.5,10.2-63.4,132.9-112.5l110.4-45l-51.1-102.3c-59.3-116.6-59.3-116.6-284.3,2l-143.2,73.6l-102.3-34.8c-147.3-51.1-437.7-49.1-595.2,4.1c-229.1,77.7-423.4,274.1-488.9,497c-16.4,57.3-30.7,180-30.7,274.1c0,282.3,96.1,488.8,298.6,646.3c153.4,118.6,302.7,157.5,560.4,151.4C6385.5-555.9,6418.2-562.1,6540.9-623.4z M7600.5-1230.9v-685.2h439.8H8480v-133V-2182h-593.2h-593.2v818.2v818.2h153.4h153.4V-1230.9z"/><path d="M5984.6-809.6c-241.4-77.7-355.9-253.6-355.9-544.1c0-347.7,169.8-540,488.8-554.3c133-6.1,137.1-4.1,65.5,16.4c-81.8,26.6-83.9,28.6-22.5,177.9c24.6,59.3,34.8,65.4,83.9,53.2c32.7-6.1,106.4-34.8,167.7-63.4c126.8-57.3,141.1-51.1,210.7,90c36.8,77.7,47,128.9,47,270c-2,357.9-169.8,550.2-490.9,564.5C6101.2-795.2,6013.2-799.3,5984.6-809.6z"/></g></g>
</svg>